<svg xmlns="http://www.w3.org/2000/svg" xmlns:xlink="http://www.w3.org/1999/xlink" width="54.662" height="64.937" viewBox="0 0 54.662 64.937">
  <defs>
    <clipPath id="clip-path">
      <path id="Path_133003" data-name="Path 133003" d="M229.431,57.681l1.129-.019.446-.008.806-.015.38-.007,1.074-.02,1.705-.031,1.121,0,1.14,0,.622,0,.711,0,.651,0,1.1,0h.33a5.456,5.456,0,0,1-5.571,4.246h-.047a5.458,5.458,0,0,1-5.594-4.162m24.35-1.919v0m-37.772-.556a1.5,1.5,0,0,1,.257.839,1.541,1.541,0,0,0-.257-.839m38.019-.268a1.533,1.533,0,0,0-.247.815,1.5,1.5,0,0,1,.247-.815M215.24,54.6a1.485,1.485,0,0,0-.151-.045c-2.621-.645-4.851-4.377-4.261-7.132.834-3.921,2.945-6.6,5.413-9.454,2.944-3.407,3.818-7.037,4.831-11.241l.183-.757a49.487,49.487,0,0,0,.973-5.747c.624-4.955.967-7.683,7.021-10.425.081-.037.163-.075.244-.105.029-.011.059-.022.088-.035a15.452,15.452,0,0,1,3.311-1.017,6.855,6.855,0,0,1,3.625-.021,15.394,15.394,0,0,1,3.3.966c.029.013.059.024.089.034.08.028.159.064.248.1,6.089,2.655,6.471,5.379,7.163,10.324a49.483,49.483,0,0,0,1.054,5.733l.2.764c1.072,4.185,2,7.8,4.986,11.164,2.507,2.817,4.656,5.468,5.546,9.378.627,2.745-1.55,6.507-4.162,7.189-.05.013-.1.029-.147.047-.544.06-2.859.187-12.634.175-2.149.006-4.256,0-6.051-.01l-1.025,0-1.87.032c-1.63.03-3.47.064-5.342.092h0c-3.831.052-6.53.071-8.425.071-2.755,0-3.816-.041-4.2-.079m19.419-51.51a4.291,4.291,0,0,1,4.308,2.924c-.2-.058-.405-.106-.608-.157-.1-.026-.207-.056-.31-.08-.322-.075-.645-.141-.967-.2a16.515,16.515,0,0,0-2.316-.287,1.547,1.547,0,0,0-.181,0,16.672,16.672,0,0,0-2.293.313q-.495.094-.983.215c-.1.024-.2.054-.295.08-.211.056-.424.11-.633.174a4.3,4.3,0,0,1,4.278-2.985M234.637,0c-4.131.029-7.471,3.122-7.444,6.894q0,.227.021.45c-6.908,3.4-7.442,7.626-8.054,12.5a46.29,46.29,0,0,1-.91,5.4l-.185.762c-.957,3.969-1.712,7.1-4.164,9.942-2.651,3.064-5.112,6.2-6.1,10.831-.924,4.308,2.171,9.523,6.291,10.714.606.24,2.067.321,7.3.284,1.367-.009,3-.027,4.93-.052.42,4.065,4.2,7.242,8.771,7.21s8.3-3.266,8.657-7.341c9.136,0,11.38-.086,12.18-.383,4.124-1.225,7.17-6.5,6.184-10.811-1.051-4.621-3.557-7.72-6.25-10.746-2.49-2.8-3.289-5.924-4.3-9.875l-.2-.769a46.43,46.43,0,0,1-.986-5.389c-.68-4.861-1.274-9.082-8.229-12.383.01-.149.015-.3.014-.451C242.139,3.051,238.823.027,234.75,0Z" transform="translate(-207.639)"/>
    </clipPath>
  </defs>
  <g id="Notification-Icon-98uhcd" clip-path="url(#clip-path)">
    <rect id="Rectangle_59616" data-name="Rectangle 59616" width="56.677" height="65.364" transform="matrix(1, -0.007, 0.007, 1, -1.218, 0.003)"/>
  </g>
</svg>
